<?xml version="1.0" encoding="UTF-8"?>
<svg version="1.1" xmlns="http://www.w3.org/2000/svg" width="63" height="50">
<path d="M0 0 C0.99 0.33 1.98 0.66 3 1 C3.495 3.475 3.495 3.475 4 6 C4.66 5.34 5.32 4.68 6 4 C9.125 4.375 9.125 4.375 12 5 C12.66 8.3 13.32 11.6 14 15 C14.5775 14.01 15.155 13.02 15.75 12 C16.4925 11.01 17.235 10.02 18 9 C19.32 9 20.64 9 22 9 C20.72232235 13.99455809 18.87088216 16.61297811 15 20 C12.01405576 21.49297212 9.29146376 21.11755228 6 21 C5.34 20.67 4.68 20.34 4 20 C2.86044981 23.7082084 2.79027973 27.32703764 2.625 31.1875 C1.88128044 45.11871956 1.88128044 45.11871956 -2 49 C-3.99958364 49.04080783 -6.00045254 49.04254356 -8 49 C-12.0210194 40.11143081 -7.94471806 30.31437915 -4.8125 21.625 C-4.21794457 20.07960124 -3.61765955 18.53631056 -3 17 C-3.43183594 17.48726562 -3.86367188 17.97453125 -4.30859375 18.4765625 C-6 20 -6 20 -9.0625 20.375 C-10.031875 20.25125 -11.00125 20.1275 -12 20 C-14.29633824 16.55549263 -14.54016485 14.06187717 -15 10 C-17.97 14.95 -17.97 14.95 -21 20 C-22.65 19.67 -24.3 19.34 -26 19 C-26 16.03 -26 13.06 -26 10 C-28.97 14.95 -28.97 14.95 -32 20 C-33.65 19.67 -35.3 19.34 -37 19 C-37 16.36 -37 13.72 -37 11 C-38.32 11.33 -39.64 11.66 -41 12 C-40.39873418 6.58860759 -40.39873418 6.58860759 -38.6875 4.0625 C-37 3 -37 3 -34.8125 3.3125 C-34.214375 3.539375 -33.61625 3.76625 -33 4 C-32.67 5.98 -32.34 7.96 -32 10 C-31.443125 9.175 -30.88625 8.35 -30.3125 7.5 C-28 5 -28 5 -25.4375 4.5 C-22.66923392 5.06784945 -21.72960384 5.81523726 -20 8 C-19.62875 7.505 -19.2575 7.01 -18.875 6.5 C-16.23298326 4.38638661 -14.28862853 4.7140323 -11 5 C-10 6 -10 6 -9.90234375 8.50390625 C-9.91394531 9.51324219 -9.92554687 10.52257812 -9.9375 11.5625 C-9.94652344 12.57441406 -9.95554687 13.58632812 -9.96484375 14.62890625 C-9.97644531 15.41136719 -9.98804687 16.19382812 -10 17 C-5.89701587 13.34058172 -3.92410472 10.13094591 -2 5 C-1.608125 4.030625 -1.21625 3.06125 -0.8125 2.0625 C-0.544375 1.381875 -0.27625 0.70125 0 0 Z M7 8 C5.68 10.31 4.36 12.62 3 15 C4.98 15.99 4.98 15.99 7 17 C9.46823846 13.65598531 9.46823846 13.65598531 9.6875 9.6875 C9.3471875 8.8521875 9.3471875 8.8521875 9 8 C8.34 8 7.68 8 7 8 Z M-2 25 C-2.67449966 27.39387157 -3.33976641 29.78969221 -4 32.1875 C-4.19078125 32.86103516 -4.3815625 33.53457031 -4.578125 34.22851562 C-5.5825836 37.90555156 -6.23704741 41.1850182 -6 45 C-5.34 45.33 -4.68 45.66 -4 46 C-2.22598368 41.37025009 -1.60358379 37.03955157 -1.375 32.125 C-1.31699219 31.09246094 -1.31699219 31.09246094 -1.2578125 30.0390625 C-1.16451834 28.35976754 -1.08121762 26.67992233 -1 25 C-1.33 25 -1.66 25 -2 25 Z " fill="#FDFDFD" transform="translate(41,0)"/>
</svg>
